<svg width="728" height="616" viewBox="0 0 728 616" fill="none" xmlns="http://www.w3.org/2000/svg">
<path d="M131.586 315.312C248.961 299.106 490.097 253.325 567.112 144.224C579.998 125.97 605.652 122.391 622.935 136.54C672.49 177.116 740.675 257.641 630.404 335.519C528.834 407.252 564.229 406.706 601.357 397.564C612.583 394.801 620.22 408.696 611.833 416.656C535.4 489.228 323.574 643.024 106.965 377.983C87.9133 354.67 101.774 319.43 131.586 315.312Z" stroke="#AFE638" stroke-width="2" stroke-miterlimit="10"/>
<path d="M106.113 482.426C91.3203 476.595 88.9543 456.627 102 447.515C179.35 393.489 394.853 254.332 503.66 298.786C632.734 351.521 385.622 592.65 106.113 482.426Z" stroke="#C3EC6A" stroke-width="2" stroke-miterlimit="10"/>
<path d="M354.9 560.976C457.627 560.976 540.904 555.91 540.904 549.662C540.904 543.413 457.627 538.348 354.9 538.348C252.173 538.348 168.896 543.413 168.896 549.662C168.896 555.91 252.173 560.976 354.9 560.976Z" fill="#1C2027" fill-opacity="0.15"/>
<path d="M200.928 429.378C199.69 433.642 201.015 437.863 203.84 439.583C207.786 441.982 213.137 438.57 215.488 435.209C218.342 431.142 217.774 425.747 215.488 422.088C211.753 416.11 204.313 416.212 203.112 416.256C196.589 416.482 192.323 421.06 190.008 423.546C182.837 431.244 181.84 440.735 181.272 446.144C179.911 459.15 183.776 469.173 185.64 473.846C187.409 478.271 190.962 486.91 199.472 494.987C208.769 503.808 218.589 506.862 222.768 508.109C234.285 511.542 243.669 510.58 246.064 510.296C253.723 509.377 259.707 507.03 263.536 505.193C265.232 503.975 266.936 502.765 268.632 501.548C274.099 507.023 279.989 514.67 278.096 521.231C274.623 533.281 246.69 535.541 228.592 532.895C223.154 532.1 195.81 527.522 176.176 503.006C171.182 496.773 162.286 483.746 159.432 465.098C158.325 457.881 155.996 441.187 164.528 423.546C167.921 416.533 174.523 402.864 189.28 398.031C191.915 397.171 202.843 393.584 214.032 399.489C215.386 400.203 226.677 406.407 229.32 419.901C231.053 428.772 228.81 439.54 221.312 446.144C220.351 446.99 214.323 452.151 206.024 451.976C203.643 451.925 199.778 451.845 197.288 449.06C194.114 445.51 195.388 440.043 195.832 438.125C196.895 433.562 199.596 430.639 200.928 429.378Z" fill="#5E1EE5"/>
<path d="M310.128 279.204C310.128 279.204 271.595 291.655 263.849 316.951C263.172 319.16 262.837 321.449 262.721 323.76C262.48 328.71 261.629 340.571 258.804 347.372C258.804 347.372 228.956 410.795 234.052 440.684C234.052 440.684 288.652 584.295 383.292 498.274L405.132 429.749L418.236 377.261C418.236 377.261 425.181 346.097 421.112 322.915C419.91 316.062 416.918 309.647 412.281 304.464C405.765 297.181 393.71 287.872 373.828 286.137L310.128 279.204Z" fill="#5E1EE5"/>
<path d="M274.82 521.595C266.535 513.875 246.879 494.461 236.236 471.294C232.742 463.683 230.543 456.372 230.412 447.966C230.325 442.36 230.201 434.152 235.508 426.096C236.28 424.93 243.421 414.44 256.62 412.246C269.52 410.095 283.083 416.729 290.836 429.012C301.756 461.577 314.132 499.236 325.052 531.801C309.036 534.717 293.748 536.175 274.82 521.595Z" fill="#5E1EE5"/>
<path d="M398.58 434.116C410.155 428.065 420.311 424.551 427.7 422.452C439.428 419.113 446.271 418.727 450.996 418.807C460.278 418.967 465.345 421.001 467.012 421.723C470.252 423.123 475.668 425.47 479.388 431.2C482.788 436.441 482.97 441.748 483.028 444.322C483.203 452.093 480.349 459.062 473.564 469.108C465.585 480.925 457.759 488.703 451.724 494.622C443.061 503.122 432.563 513.234 420.42 524.511C418.047 526.756 410.17 533.653 398.58 533.988C388.373 534.287 380.402 529.352 377.468 526.698C364.364 514.845 372.933 477.054 398.58 434.116Z" fill="#5E1EE5"/>
<path d="M387.66 369.964C387.66 369.964 377.468 407.872 363.636 439.218C349.804 470.565 343.98 495.351 343.98 506.286L370.188 504.099L377.468 487.332C377.468 487.332 377.468 496.08 382.564 499.725C382.564 499.725 379.652 493.164 383.292 480.042C383.292 480.042 384.748 490.977 389.844 494.622C389.844 494.622 386.204 488.79 392.756 468.378L387.66 369.964Z" fill="#5E1EC3"/>
<path d="M286.104 198.286C285.784 197.084 282.974 187.104 273 182.977C265.167 179.741 258.091 182.256 256.256 182.977C249.631 185.595 246.319 190.595 244.608 193.183C240.386 199.555 239.796 205.788 239.512 209.221C239.352 211.197 238.879 218.713 242.424 227.446C246.086 236.471 251.903 241.545 253.344 242.755C256.314 245.248 259.416 247.785 264.264 248.587C265.174 248.74 269.877 249.447 275.184 247.129C280.244 244.92 282.923 241.246 283.92 239.839C287.888 234.24 288.099 228.438 288.288 220.156C288.404 214.9 288.113 207.326 286.104 198.286Z" fill="#5E1EE5"/>
<path d="M415.688 174.229C416.853 172.823 419.626 169.877 424.278 168.398C429.171 166.837 433.335 167.792 435.992 168.398C444.378 170.315 449.336 175.527 450.829 177.145C455.801 182.518 457.191 188.139 457.854 190.996C458.392 193.3 459.623 198.84 457.854 205.576C456.041 212.494 452.073 216.839 447.705 221.614C446.279 223.181 443.141 226.433 438.336 229.633C434.23 232.367 431.289 234.262 427.409 234.007C424.169 233.796 421.73 232.185 420.384 231.091C418.811 212.137 417.246 193.183 415.688 174.229Z" fill="#5E1EE5"/>
<path d="M282.464 174.229C282.464 175.687 283.192 197.557 285.376 205.576C287.56 213.595 282.464 235.669 282.464 235.669C282.464 235.669 274.82 261.344 301.028 274.466C327.236 287.588 362.18 297.065 362.18 297.065L424.06 259.886C424.06 259.886 429.003 255.935 428.166 243.221C427.904 239.263 426.885 235.392 425.327 231.74C422.968 226.214 419.19 215.782 419.699 206.67C420.427 193.548 421.883 173.136 416.787 154.911L415.331 151.266L401.499 149.808H378.305L350.539 153.453L318.507 160.743L282.464 174.229Z" fill="#5E1EE5"/>
<path d="M346.018 495.125L318.311 512.861C318.296 512.796 318.282 512.723 318.26 512.657C318.027 511.673 312.538 516.31 311.679 516.842L307.762 519.24C313.943 512.847 310.776 504.959 310.776 504.959C308.534 509.771 303.649 512.679 303.649 512.679C308.796 507.102 306.546 491.859 306.816 485.932C306.859 484.868 306.765 483.818 306.546 482.783C305.738 479.051 305.644 481.004 304.814 477.002L342.924 469.173C344.278 478.504 345.283 487.471 346.018 495.125Z" fill="#411CA5"/>
<path d="M350.896 507.38C350.896 507.38 340.34 455.986 324.324 422.452C308.308 388.918 310.492 344.449 310.492 344.449C310.492 344.449 276.276 337.888 274.092 372.151C272.723 393.642 291.833 447.413 306.277 484.504C306.663 485.495 306.925 486.516 307.041 487.573C307.711 493.463 310.696 502.517 306.488 508.838C306.488 508.838 310.856 505.193 312.312 500.09C312.312 500.09 316.68 507.38 311.584 514.67L315.071 511.681C315.836 511.025 317.015 511.316 317.401 512.242C320.109 518.803 321.776 522.688 321.776 522.688L350.896 507.38Z" fill="#5E1EE5"/>
<path d="M228.002 436.252C223.831 435.428 220.089 434.255 216.733 432.819C218.072 429.195 217.352 425.069 215.488 422.088C211.753 416.11 204.313 416.212 203.112 416.256C201.103 416.329 199.305 416.81 197.718 417.517C193.219 411.124 190.729 404.133 189.36 398.002C192.127 397.098 202.952 393.642 214.032 399.489C215.386 400.203 226.677 406.407 229.32 419.901C230.339 425.106 229.983 430.967 228.002 436.252Z" fill="#8656EB"/>
<path d="M424.06 259.886L394.132 277.871L349.44 261.971C281.008 274.626 296.296 229.633 296.296 229.633C298.48 219.427 291.804 199.139 291.804 199.139C288.514 192.782 289.373 179.901 290.458 171.241L318.5 160.743L350.532 153.453L378.298 149.808H401.492L415.324 151.266L416.78 154.911C421.876 173.136 420.42 193.548 419.692 206.67C419.19 215.782 422.968 226.214 425.32 231.74C426.877 235.392 427.904 239.263 428.166 243.221C429.003 255.935 424.06 259.886 424.06 259.886Z" fill="#8656EB"/>
<path d="M483.028 444.322C483.203 452.093 480.349 459.062 473.564 469.108C473.193 469.662 472.821 470.201 472.443 470.733C472.13 471.185 471.817 471.637 471.489 472.082C471.111 472.614 470.732 473.139 470.354 473.656C469.997 474.145 469.647 474.619 469.291 475.085C459.586 471.01 451.622 464.245 449.904 456.35C446.264 439.583 415.506 445.867 415.506 445.867C408.43 447.121 403.45 446.91 400.043 445.707L404.703 431.083C413.73 426.841 421.643 424.172 427.7 422.452C439.428 419.113 446.271 418.727 450.996 418.807C460.278 418.967 465.345 421.001 467.012 421.723C470.252 423.123 475.668 425.47 479.388 431.2C482.788 436.441 482.97 441.748 483.028 444.322Z" fill="#8656EB"/>
<path d="M285.915 210.162C285.937 211.445 285.893 212.844 285.806 214.295C285.791 214.543 285.776 214.784 285.755 215.031C285.718 215.505 285.682 215.986 285.638 216.475C267.373 224.683 254.298 225.296 244.914 222.387C243.269 221.884 241.74 221.264 240.313 220.564C240.218 220.134 240.138 219.712 240.065 219.296C239.985 218.88 239.92 218.472 239.861 218.071C239.796 217.678 239.745 217.284 239.701 216.905C239.679 216.715 239.658 216.533 239.636 216.344C239.599 215.994 239.57 215.651 239.541 215.323C239.519 215.126 239.505 214.937 239.497 214.754C239.396 213.333 239.388 212.115 239.41 211.146V211.124C239.417 210.847 239.432 210.599 239.439 210.366V210.329C239.454 210.103 239.461 209.892 239.476 209.71C239.49 209.52 239.497 209.36 239.512 209.221C239.796 205.788 240.386 199.555 244.608 193.183C246.319 190.595 249.631 185.595 256.256 182.977C258.091 182.256 265.167 179.741 273 182.977C278.249 185.15 281.51 188.941 283.469 192.221C283.92 197.419 284.539 202.507 285.376 205.576C285.573 206.291 285.704 207.107 285.791 208.018C285.813 208.244 285.835 208.478 285.849 208.711C285.886 209.178 285.907 209.659 285.915 210.162Z" fill="#8656EB"/>
<path d="M457.846 205.576C456.034 212.494 452.066 216.839 447.698 221.614C447.174 222.19 446.424 222.992 445.441 223.94C444.903 223.641 444.379 223.342 443.862 223.036C431.209 215.622 424.031 206.181 420.223 196.486V196.478C420.231 196.289 420.238 196.099 420.245 195.91C420.267 195.472 420.282 195.035 420.296 194.59C420.318 193.985 420.34 193.38 420.354 192.761C420.369 192.338 420.384 191.915 420.391 191.485C420.413 190.705 420.427 189.917 420.435 189.116C420.442 188.693 420.449 188.277 420.449 187.854C420.464 186.105 420.456 184.319 420.42 182.504C420.333 178.625 420.114 174.63 419.692 170.614C420.187 170.278 420.711 169.958 421.286 169.659C421.468 169.557 421.65 169.469 421.84 169.374C421.854 169.367 421.869 169.36 421.891 169.353C422.131 169.236 422.371 169.127 422.619 169.017C422.844 168.922 423.077 168.828 423.317 168.733C423.63 168.616 423.951 168.5 424.278 168.398C429.171 166.837 433.335 167.792 435.985 168.398C444.371 170.315 449.329 175.527 450.821 177.145C455.794 182.518 457.184 188.139 457.846 190.996C458.385 193.3 459.616 198.84 457.846 205.576Z" fill="#8656EB"/>
<path d="M418.236 377.254L405.132 429.742L404.703 431.083L391.577 472.279L386.058 489.6C383.976 485.197 383.292 480.043 383.292 480.043C380.293 490.861 381.741 497.225 382.346 499.12C382.258 499.201 382.171 499.281 382.084 499.354C377.468 495.526 377.468 487.333 377.468 487.333L372.052 499.813C371.644 502.729 371.418 505.484 371.397 508.051V508.058C371.076 508.291 370.763 508.517 370.443 508.75C369.227 509.625 368.026 510.456 366.832 511.258C366.512 511.47 366.191 511.681 365.871 511.892C365.791 511.943 365.718 511.994 365.638 512.045C365.325 512.257 365.005 512.454 364.684 512.658C364.371 512.862 364.051 513.059 363.738 513.256C363.461 513.423 363.185 513.598 362.908 513.766C362.879 513.788 362.843 513.802 362.813 513.824C362.784 513.846 362.748 513.861 362.719 513.882C362.275 514.152 361.831 514.415 361.387 514.67C360.913 514.947 360.447 515.224 359.974 515.486C359.661 515.661 359.355 515.836 359.042 516.011C358.729 516.186 358.424 516.354 358.111 516.514C357.834 516.667 357.565 516.813 357.288 516.952C356.946 517.134 356.604 517.309 356.261 517.484C356.247 517.491 356.225 517.506 356.203 517.513C355.919 517.659 355.628 517.804 355.344 517.943C355.075 518.074 354.813 518.205 354.551 518.337C354.536 518.344 354.529 518.351 354.514 518.351C354.179 518.519 353.844 518.672 353.51 518.825C353.226 518.964 352.949 519.088 352.665 519.219C352.643 519.226 352.621 519.241 352.6 519.248H352.592L337.414 513.708C337.414 513.708 337.414 513.708 337.414 513.7C336.868 512.534 291.105 413.894 288.594 346.549C287.414 315.049 295.699 290.395 322.504 285.766L326.137 285.263C345.261 292.48 362.544 294.514 362.544 294.514L379.244 286.815C395.93 289.6 406.377 297.86 412.281 304.457C416.918 309.64 419.91 316.048 421.112 322.908C425.181 346.09 418.236 377.254 418.236 377.254Z" fill="#8656EB"/>
<path d="M300.992 474.561C294.097 468.401 283.76 460.739 268.632 452.705C248.394 441.953 245.263 426.972 246.333 416.022C249.209 414.324 252.638 412.91 256.62 412.246C265.356 410.788 274.405 413.361 281.736 418.997C287.196 437.134 294.338 457.065 300.992 474.561Z" fill="#8656EB"/>
<path d="M428.792 468.015C428.792 468.015 383.256 515.698 381.268 520.655L376.66 525.904C373.02 522.04 371.309 515.902 371.397 508.051C370.654 508.598 369.911 509.137 369.169 509.647C369.802 508.918 370.552 508.051 371.418 507.089C373.704 504.53 376.791 501.235 380.496 497.641C380.948 498.268 381.479 498.851 382.084 499.354C382.171 499.281 382.258 499.201 382.346 499.121C382.178 498.581 381.938 497.685 381.756 496.431C382.724 495.498 383.736 494.557 384.777 493.61C385.534 492.917 386.313 492.225 387.107 491.532C387.864 492.771 388.774 493.85 389.837 494.616C389.786 494.535 389.05 493.252 388.876 490.001C399.963 480.539 414.152 471.011 428.792 468.015Z" fill="#411CA5"/>
<path d="M347.271 485.539V485.547C347.183 485.897 347.096 486.247 347.008 486.589C346.885 487.107 346.768 487.624 346.652 488.127C346.353 489.374 346.091 490.584 345.851 491.743C345.713 491.182 345.574 490.606 345.421 490.023C345.312 489.578 345.203 489.133 345.087 488.674C344.832 487.646 344.562 486.582 344.278 485.496C344.184 485.138 344.096 484.774 344.002 484.409C343.929 484.132 343.856 483.855 343.783 483.571C343.66 483.112 343.536 482.638 343.412 482.164C343.281 481.661 343.143 481.151 343.004 480.633C342.728 479.569 342.429 478.483 342.131 477.375C341.861 476.376 341.578 475.363 341.294 474.342C341.286 474.313 341.279 474.276 341.265 474.247C340.966 473.154 340.653 472.046 340.325 470.923C340.136 470.245 339.94 469.56 339.736 468.875L339.343 467.519C339.146 466.855 338.949 466.177 338.746 465.499C338.52 464.748 338.294 463.99 338.061 463.225C337.792 462.336 337.523 461.446 337.239 460.549C336.7 458.785 336.132 457.007 335.557 455.228C334.982 453.449 334.385 451.656 333.773 449.87C333.577 449.272 333.373 448.681 333.162 448.084C331.728 443.914 330.206 439.766 328.605 435.727C328.379 435.151 328.153 434.575 327.92 434.007C327.687 433.431 327.454 432.862 327.221 432.294C326.523 430.595 325.809 428.918 325.081 427.278C324.885 426.826 324.688 426.389 324.484 425.944C324.273 425.47 324.062 424.996 323.843 424.53C323.523 423.83 323.196 423.138 322.868 422.452C306.852 388.919 309.036 344.45 309.036 344.45C307.944 341.169 320.32 406.05 337.792 441.771C341.956 450.278 347.773 468.197 348.712 480.407L347.984 482.594L347.271 485.539Z" fill="#411CA5"/>
<path d="M229.087 432.651L229.589 429.902C229.466 430.821 229.298 431.739 229.087 432.651Z" fill="#411CA5"/>
<path d="M281.736 419.004L281.729 418.996C280.986 418.421 280.222 417.881 279.443 417.371C279.232 417.232 279.021 417.101 278.809 416.97C278.569 416.817 278.322 416.664 278.074 416.525C277.674 416.285 277.266 416.051 276.858 415.84C276.553 415.672 276.247 415.512 275.941 415.359C275.628 415.198 275.315 415.045 274.995 414.9C274.594 414.71 274.187 414.535 273.772 414.36C273.502 414.251 273.233 414.141 272.964 414.039C272.665 413.923 272.359 413.806 272.054 413.697C271.974 413.668 271.901 413.646 271.821 413.617C271.566 413.529 271.311 413.442 271.056 413.369C270.962 413.332 270.86 413.303 270.765 413.274C270.474 413.179 270.19 413.099 269.899 413.019C269.651 412.946 269.411 412.88 269.163 412.822C268.843 412.742 268.523 412.662 268.202 412.596C268.173 412.581 268.144 412.574 268.115 412.574C267.919 412.53 267.722 412.487 267.518 412.45C267.496 412.443 267.467 412.436 267.438 412.436C267.06 412.355 266.681 412.29 266.302 412.231C266.04 412.188 265.771 412.144 265.502 412.115C265.225 412.078 264.941 412.042 264.664 412.013C264.351 411.976 264.038 411.954 263.725 411.925C263.653 411.925 263.572 411.918 263.492 411.911C263.179 411.889 262.866 411.874 262.546 411.867C262.197 411.852 261.84 411.845 261.483 411.845C259.86 411.845 258.236 411.976 256.62 412.246C256.292 412.297 255.965 412.363 255.644 412.428C255.535 412.443 255.433 412.472 255.324 412.494C255.179 412.523 255.04 412.552 254.902 412.589C254.771 412.61 254.647 412.647 254.516 412.683C254.494 412.683 254.465 412.691 254.443 412.698C254.298 412.727 254.167 412.764 254.028 412.8C253.686 412.888 253.351 412.982 253.024 413.084C252.783 413.15 252.543 413.23 252.303 413.31C251.895 413.442 251.495 413.58 251.102 413.733C250.993 413.77 250.883 413.813 250.774 413.857C250.548 413.945 250.323 414.032 250.104 414.127C249.952 414.192 249.799 414.258 249.646 414.324C249.595 414.345 249.544 414.367 249.493 414.389C249.165 414.535 248.852 414.681 248.539 414.834C248.459 414.87 248.386 414.907 248.314 414.951C248.015 415.089 247.731 415.242 247.447 415.395C247.345 415.446 247.243 415.497 247.149 415.556C246.916 415.68 246.69 415.811 246.464 415.942C241.667 418.734 238.413 422.292 236.753 424.398C236.076 425.251 235.661 425.864 235.508 426.097C235.319 426.381 235.137 426.665 234.969 426.95C234.86 427.125 234.751 427.307 234.649 427.482C234.533 427.679 234.423 427.868 234.321 428.065C234.205 428.262 234.103 428.459 234.001 428.656C233.877 428.896 233.754 429.129 233.637 429.37C233.615 429.414 233.593 429.465 233.572 429.509C233.601 428.947 233.637 428.379 233.681 427.803C233.724 427.234 233.768 426.665 233.826 426.09V426.046C233.87 425.572 233.921 425.091 233.979 424.61C234.001 424.398 234.023 424.187 234.052 423.976C234.096 423.582 234.147 423.188 234.198 422.787C234.256 422.306 234.329 421.825 234.401 421.337C234.445 420.972 234.503 420.6 234.562 420.228C234.642 419.66 234.736 419.091 234.831 418.523C235.311 415.665 235.901 412.742 236.578 409.789C236.68 409.337 236.782 408.893 236.891 408.441C237.066 407.704 237.241 406.968 237.43 406.225C237.546 405.751 237.67 405.277 237.794 404.796C238.223 403.126 238.675 401.442 239.148 399.766C246.989 400.524 264.694 403.447 277.346 414.462C278.875 415.789 280.324 417.24 281.678 418.814L281.685 418.822C281.802 418.953 281.911 419.084 282.027 419.222C281.933 419.15 281.838 419.069 281.736 419.004Z" fill="#411CA5"/>
<path d="M321.157 283.346C309.291 284.738 297.068 287.202 289.365 288.908C300.176 282.42 310.128 279.205 310.128 279.205L311.54 279.358C314.729 280.751 317.954 282.077 321.157 283.346Z" fill="#5E1EA5"/>
<path d="M277.186 523.345C271.224 533.544 245.576 535.381 228.592 532.895C223.154 532.101 195.81 527.522 176.176 503.006C173.883 500.141 170.767 495.848 167.789 490.234C175.237 493.158 185.531 495.396 198.431 493.967C198.766 494.309 199.115 494.645 199.472 494.987C208.769 503.808 218.589 506.863 222.768 508.109C234.285 511.543 243.669 510.581 246.064 510.296C251.786 509.611 256.576 508.124 260.224 506.659C266.069 513.249 271.406 518.41 274.82 521.596C275.614 522.208 276.4 522.791 277.186 523.345Z" fill="#411CA5"/>
<path d="M361.911 151.959C325.452 160.51 290.436 180.062 282.908 184.414C282.595 179.099 282.464 174.842 282.464 174.23L318.5 160.743L350.532 153.453L361.911 151.959Z" fill="#411CA5"/>
<path d="M387.653 369.994C387.34 371.146 377.25 408.361 363.636 439.219C356.24 455.986 351.129 470.872 347.984 482.77C347.773 477.637 347.518 472.826 347.169 468.314L387.653 369.994Z" fill="#411CA5"/>
<path d="M281.736 419.004L281.729 418.997C280.986 418.421 280.222 417.882 279.443 417.371C279.232 417.233 279.021 417.101 278.809 416.97C278.569 416.817 278.322 416.664 278.074 416.526C277.819 415.833 277.579 415.148 277.346 414.462C268.457 388.525 272.811 369.053 273.124 367.756C272.898 369.141 272.738 370.606 272.636 372.152C271.995 382.263 275.883 399.518 281.678 418.815L281.685 418.822C281.802 418.953 281.911 419.084 282.027 419.223C281.933 419.15 281.838 419.07 281.736 419.004Z" fill="#411CA5"/>
<path d="M431.704 522.689C431.704 522.689 468.832 532.895 473.928 532.895C473.928 532.895 480.48 535.082 480.48 537.998C480.48 540.913 478.667 543.829 478.667 543.829H374.92C374.92 543.829 370.188 525.24 384.02 516.492C384.02 516.492 389.116 528.156 397.124 525.969C397.124 525.969 401.492 523.782 400.764 518.679C400.764 518.679 407.316 522.324 407.316 525.969C407.316 525.969 409.5 519.408 412.412 517.221C412.412 517.221 416.78 525.24 418.964 525.24C418.964 525.24 422.968 522.689 425.152 519.773L431.704 522.689Z" fill="#90BA1C"/>
<path d="M283.92 516.128C283.92 516.128 270.816 527.792 230.776 531.437C230.776 531.437 224.952 535.082 225.68 537.998C226.408 540.914 229.32 543.83 229.32 543.83H331.24C331.24 543.83 325.663 526.173 312.436 522.609C312.436 522.609 312.414 527.427 308.905 528.885C305.396 530.343 304.763 511.389 299.98 513.941C299.98 513.941 303.212 520.866 296.66 524.511C296.66 524.511 295.932 519.408 293.748 518.679C293.748 518.679 294.476 523.782 291.564 523.782C291.564 523.782 289.38 519.408 283.92 516.128Z" fill="#90BA1C"/>
<path d="M411.32 208.492C408.823 213.923 405.445 218.006 402.453 220.907C400.873 222.438 399.403 223.634 398.216 224.53C389.786 228.285 355.788 242.536 326.872 231.82C325.991 231.492 325.045 231.142 324.047 230.741C318.194 228.409 310.747 224.625 305.76 216.511C299.63 206.531 301.035 196.18 301.392 193.913C301.785 191.456 303.671 179.551 313.768 172.772C323.727 166.087 335.258 168.689 343.616 170.585C353.335 172.786 360.491 177.065 364.728 180.062C367.698 176.366 374.294 169.229 385.112 165.482C391.001 163.441 398.478 160.853 404.768 164.024C416.401 169.892 418.571 192.71 411.32 208.492Z" fill="#C3EC6A"/>
<path d="M346.892 507.015C346.892 507.015 346.892 498.267 349.804 494.623C349.804 494.623 351.26 504.828 353.444 504.099C353.444 504.099 357.812 494.623 357.812 489.52C357.812 484.417 362.18 500.454 361.452 503.37C361.452 503.37 366.184 496.445 374.192 497.174C374.192 497.174 371.28 501.548 372.008 504.464C372.248 505.426 379.732 537.764 375.837 550.041C375.408 551.397 374.214 552.417 372.794 552.454C371.884 552.475 370.705 552.249 369.249 551.484C369.249 551.484 365.82 554.4 360.724 551.484L348.348 533.988L346.892 507.015Z" fill="#AFE638"/>
<path d="M423.907 259.974C422.815 264.844 420.718 268.693 419.328 271.186C407.229 292.903 380.788 296.438 378.56 296.701C372.867 297.371 367.72 297.065 363.345 296.365C357.841 295.49 353.546 294.003 350.896 293.056C345.756 291.219 336.132 287.661 327.6 278.476C323.523 274.087 317.16 267.242 315.952 256.606C314.794 246.436 319.017 238.549 320.32 236.194C321.419 234.204 322.679 232.389 324.047 230.741C335.055 217.495 353.59 214.638 360.36 213.595C365.354 212.83 383.612 210.585 401.128 220.156C401.579 220.404 402.023 220.652 402.453 220.907C409.704 225.135 413.788 229.721 414.96 231.091C417.85 234.459 423.274 240.779 424.424 250.045C424.875 253.675 424.577 257.014 423.907 259.974Z" fill="#AFE638"/>
<path d="M320.32 500.09C320.32 500.09 313.768 510.296 320.684 526.699C324.95 536.824 329.915 547.22 331.677 550.858C332.201 551.944 333.147 552.775 334.305 553.132C335.943 553.642 338.447 553.876 341.25 552.214C341.25 552.214 348.355 554.401 347.627 550.027C347.627 550.027 351.711 554.554 355.133 550.471C355.133 550.471 362.915 555.13 362.915 550.027C362.915 544.924 359.275 528.886 359.275 528.886C359.275 528.886 358.547 524.512 354.179 518.68C349.811 512.848 347.984 500.09 347.984 500.09C347.984 500.09 343.98 502.642 344.708 504.829C344.708 504.829 342.524 495.352 335.244 491.707C335.244 491.707 337.428 499.726 335.972 502.642C335.972 502.642 330.876 498.997 330.876 495.352C330.876 495.352 326.144 500.09 327.6 504.464C327.6 504.464 323.232 506.651 320.32 500.09Z" fill="#C3EC6A"/>
<path d="M285.805 214.295C285.791 214.543 285.776 214.784 285.754 215.031C285.718 215.505 285.682 215.986 285.638 216.475C285.565 217.284 285.478 218.101 285.383 218.917C285.325 219.435 285.259 219.959 285.187 220.477C285.026 221.709 284.852 222.934 284.662 224.122C284.619 224.406 284.575 224.698 284.524 224.982C284.408 225.711 284.291 226.418 284.167 227.104C284.124 227.366 284.08 227.621 284.029 227.876C283.738 229.531 283.447 231.018 283.199 232.236C283.177 232.345 283.155 232.454 283.134 232.564C283.024 233.096 282.923 233.577 282.835 233.985C282.813 234.087 282.791 234.182 282.77 234.27C282.748 234.408 282.719 234.532 282.69 234.649C282.668 234.751 282.646 234.846 282.631 234.933C282.624 234.94 282.624 234.948 282.624 234.955C281.991 235.48 281.43 235.888 281.008 236.194C275.097 240.466 268.858 240.583 267.176 240.568C265.946 240.554 257.668 240.342 251.16 234.007C247.571 230.508 245.751 226.353 244.914 222.387C243.436 215.367 245.023 208.937 245.336 207.763C246.166 204.6 248.546 195.582 256.984 191.726C263.456 188.766 269.629 190.617 270.816 190.997C279.697 193.84 283.359 202.347 285.376 207.034C285.485 207.297 285.631 207.625 285.791 208.019C285.813 208.245 285.834 208.478 285.849 208.711C285.878 209.178 285.9 209.659 285.915 210.162C285.936 211.445 285.893 212.844 285.805 214.295Z" fill="#C3EC6A"/>
<path d="M452.627 211.408C451.549 213.843 449.205 219.121 443.862 223.036C442.318 224.166 440.52 225.186 438.438 225.988C432.643 228.219 427.139 227.825 423.485 227.082C423.332 226.652 423.179 226.214 423.026 225.769C422.939 225.529 422.859 225.281 422.779 225.033C422.691 224.778 422.611 224.523 422.524 224.26C422.495 224.158 422.458 224.056 422.429 223.954C422.313 223.59 422.196 223.225 422.087 222.853C421.971 222.474 421.861 222.095 421.76 221.716C421.65 221.337 421.541 220.951 421.439 220.557C421.097 219.267 420.784 217.933 420.522 216.584C420.442 216.169 420.362 215.753 420.296 215.338C420.107 214.302 419.961 213.253 419.859 212.21C419.845 212.079 419.83 211.94 419.816 211.809C419.787 211.481 419.758 211.146 419.736 210.818C419.634 209.418 419.619 208.033 419.692 206.67C419.779 205.095 419.874 203.411 419.969 201.647C420.005 201.02 420.041 200.386 420.071 199.737C420.129 198.68 420.18 197.594 420.223 196.486V196.478C420.231 196.289 420.238 196.099 420.245 195.91C420.267 195.472 420.282 195.035 420.296 194.59C420.318 193.985 420.34 193.38 420.354 192.761C420.369 192.338 420.384 191.915 420.391 191.485C420.413 190.705 420.427 189.918 420.435 189.116C420.442 188.693 420.449 188.277 420.449 187.854C420.464 186.105 420.456 184.319 420.42 182.504C422.196 180.791 424.737 178.983 428.18 177.875C429.52 177.444 436.29 175.411 443.163 178.604C449.868 181.716 452.161 187.709 453.42 190.996C457.053 200.503 453.711 208.966 452.627 211.408Z" fill="#C3EC6A"/>
<path d="M254.072 203.389C254.072 203.389 272.6 190.741 285.543 217.473L285.311 219.573C285.303 219.58 276.64 195.37 254.072 203.389Z" fill="#90BA1C"/>
<path d="M420.005 201.108C420.005 201.108 425.88 177.875 444.808 188.081C444.808 188.081 428.013 180.499 420.056 203.39L420.005 201.108Z" fill="#90BA1C"/>
<path d="M373.828 231.82C373.828 231.82 384.61 219.471 386.328 225.522C388.053 231.565 373.828 231.82 373.828 231.82Z" fill="#90BA1C"/>
<path d="M373.828 231.82C373.828 231.82 363.046 219.471 361.328 225.522C359.61 231.572 373.828 231.82 373.828 231.82Z" fill="#90BA1C"/>
<path d="M373.872 231.827C373.872 231.827 379.725 225.121 380.664 228.401C381.603 231.689 373.872 231.827 373.872 231.827Z" fill="#7D9B10"/>
<path d="M373.872 231.827C373.872 231.827 368.019 225.121 367.079 228.401C366.148 231.689 373.872 231.827 373.872 231.827Z" fill="#7D9B10"/>
<path d="M373.828 231.82C373.828 231.82 377.832 250.045 371.28 274.102C371.28 274.102 380.744 255.148 373.828 231.82Z" fill="#90BA1C"/>
<path d="M333.067 254.944C333.067 254.944 366.912 298.159 412.048 260.98C412.048 260.98 372.023 305.77 333.067 254.944Z" fill="#7D9B10"/>
<path d="M330.512 256.606C330.512 256.606 330.512 252.232 335.608 253.69C335.608 253.69 329.784 250.045 330.512 256.606Z" fill="#90BA1C"/>
<path d="M414.232 262.438C414.232 262.438 414.232 258.064 409.136 259.522C409.136 259.522 414.96 255.877 414.232 262.438Z" fill="#90BA1C"/>
<path d="M400.036 203.623C393.571 208.07 384.493 207.312 378.487 201.604C375.714 193.118 379.732 184.064 387.238 180.704C393.746 177.78 401.791 179.647 406.763 185.42C408.444 192.433 405.729 199.709 400.036 203.623Z" fill="#FEFFFD"/>
<path d="M403.407 189.801C403.407 196.69 397.83 202.274 390.951 202.274C385.665 202.274 381.144 198.987 379.339 194.328C380.082 191.128 381.472 187.519 384.078 184.924C384.078 184.917 384.086 184.917 384.086 184.917C386 183.014 388.57 181.666 392.021 181.44C394.627 181.257 397.728 181.724 401.434 183.065C402.686 185.004 403.407 187.315 403.407 189.801Z" fill="#5E1EE5"/>
<path d="M399.366 189.801C399.366 194.452 395.595 198.228 390.951 198.228C386.306 198.228 382.535 194.452 382.535 189.801C382.535 187.986 383.11 186.302 384.086 184.924C384.086 184.917 384.093 184.917 384.093 184.917C386.007 183.014 388.577 181.665 392.028 181.439C396.156 181.964 399.366 185.507 399.366 189.801Z" fill="#1C2027"/>
<path d="M406.77 185.412C377.817 170.577 378.487 201.596 378.487 201.596C375.714 193.111 379.732 184.057 387.238 180.696C393.753 177.773 401.798 179.639 406.77 185.412Z" fill="#1C2027"/>
<path d="M384.209 191.485C385.512 191.485 386.568 190.428 386.568 189.123C386.568 187.819 385.512 186.761 384.209 186.761C382.907 186.761 381.851 187.819 381.851 189.123C381.851 190.428 382.907 191.485 384.209 191.485Z" fill="#FEFFFD"/>
<path d="M399.701 189.458C400.63 189.458 401.383 188.704 401.383 187.774C401.383 186.844 400.63 186.09 399.701 186.09C398.772 186.09 398.02 186.844 398.02 187.774C398.02 188.704 398.772 189.458 399.701 189.458Z" fill="#FEFFFD"/>
<path d="M333.278 211.27C341.447 213.53 350.459 209.557 354.587 201.596C354.434 191.944 347.14 184.108 338.28 183.32C330.599 182.635 323.035 187.374 319.985 195.035C320.742 202.806 326.086 209.287 333.278 211.27Z" fill="#FEFFFD"/>
<path d="M324.972 198.331C327.396 205.373 335.062 209.112 342.094 206.685C347.496 204.819 350.954 199.862 351.165 194.467C349.28 191.456 346.586 188.263 343.012 186.528C343.012 186.521 343.004 186.521 343.004 186.521C340.384 185.252 337.275 184.786 333.671 185.763C330.941 186.499 327.935 188.066 324.622 190.749C324.018 193.177 324.098 195.794 324.972 198.331Z" fill="#5E1EE5"/>
<path d="M329.1 196.909C330.738 201.662 335.921 204.192 340.668 202.552C345.414 200.911 347.94 195.721 346.302 190.968C345.662 189.116 344.482 187.593 343.005 186.536C343.005 186.528 342.997 186.528 342.997 186.528C340.376 185.26 337.268 184.793 333.664 185.77C329.617 187.768 327.585 192.528 329.1 196.909Z" fill="#1C2027"/>
<path d="M319.985 195.043C344.359 169.659 354.587 201.597 354.587 201.597C354.434 191.945 347.14 184.108 338.28 183.321C330.599 182.643 323.035 187.381 319.985 195.043Z" fill="#1C2027"/>
<path d="M344.344 193.424C345.751 193.424 346.892 192.282 346.892 190.873C346.892 189.464 345.751 188.321 344.344 188.321C342.937 188.321 341.796 189.464 341.796 190.873C341.796 192.282 342.937 193.424 344.344 193.424Z" fill="#FEFFFD"/>
<path d="M328.044 196.778C329.049 196.778 329.864 195.962 329.864 194.955C329.864 193.949 329.049 193.133 328.044 193.133C327.039 193.133 326.224 193.949 326.224 194.955C326.224 195.962 327.039 196.778 328.044 196.778Z" fill="#FEFFFD"/>
<path d="M279.414 151.959C279.414 151.959 279.53 146.739 278.424 138.378C276.655 125 271.762 103.575 258.28 82.6532C256.008 79.1395 257.173 74.4302 260.806 72.3525C278.154 62.4455 327.877 39.402 396.44 53.0269C400.502 53.8361 403.079 57.8747 402.125 61.9061C399.301 73.7887 394.867 98.2318 399.767 119.3C400.764 123.615 402.162 127.793 404.04 131.685L279.414 151.959Z" fill="#1C2027"/>
<path d="M279.414 151.959C279.414 151.959 279.53 146.739 278.424 138.378C278.424 138.378 327.782 109.568 399.759 119.3H399.767C400.764 123.615 402.162 127.793 404.04 131.685L279.414 151.959Z" fill="#5E1EE5"/>
<path d="M240.939 167.668C253.249 159.292 311.591 125.102 437.164 130.679C439.202 130.767 440.658 132.677 440.243 134.674C438.846 141.395 434.012 154.94 417.661 158.345L415.324 151.259C415.324 151.259 356.509 146.272 282.544 176.832L283.083 187.147C283.214 188.838 283.338 190.522 283.469 192.214C282.588 190.632 279.392 185.317 272.636 182.606C264.919 179.507 258.105 182.015 256.62 182.606C256.62 182.606 245.591 179.697 240.116 172.327C239.01 170.84 239.403 168.718 240.939 167.668Z" fill="#1C2027"/>
<path d="M329.784 320.211C329.784 320.211 328.474 326.75 331.102 330.271C331.102 330.271 338.44 330.483 352.461 318.724L348.545 315.553L329.784 320.211Z" fill="#2E343D"/>
<path d="M379.397 331.328C379.397 331.328 379.696 336.817 375.531 338.873C375.531 338.873 361.481 327.406 359.901 320.765L364.109 319.285L379.397 331.328Z" fill="#2E343D"/>
<path d="M394.001 299.529C394.001 299.529 393.972 301.453 393.746 304.457C393.266 311.105 391.875 323.032 387.835 330.927C386.932 332.691 385.905 334.258 384.719 335.519C384.719 335.519 368.666 330.934 360.549 319.015C352.439 307.096 366.41 305.733 366.41 305.733C366.41 305.733 377.359 299.383 394.001 299.529Z" fill="#1C2027"/>
<path d="M350.597 318.213C336.249 323.885 323.661 321.02 323.661 321.02C323.414 320.058 323.239 319.074 323.123 318.075C322.205 310.012 325.329 301.045 327.709 295.607C329.063 292.524 330.17 290.577 330.17 290.577C342.415 291.138 352.199 302.832 352.199 302.832C352.199 302.832 364.946 312.542 350.597 318.213Z" fill="#1C2027"/>
<path d="M393.753 304.458C393.273 311.106 391.882 323.032 387.842 330.927C383.401 329.251 369.118 323.112 364.946 312.542C364.946 312.542 374.228 303.911 393.753 304.458Z" fill="#2E343D"/>
<path d="M351.879 307.978L352.206 314.102C342.189 319.511 327.462 318.512 323.123 318.075C322.205 310.012 325.329 301.046 327.709 295.607C340.755 297.802 351.879 307.978 351.879 307.978Z" fill="#2E343D"/>
<path d="M352.097 301.928C354.907 301.454 360.68 301.118 366.359 304.778C367.196 305.317 367.691 306.251 367.705 307.249C367.742 310.639 367.167 318.556 361.306 321.603C360.855 321.836 360.345 321.931 359.843 321.866C357.877 321.625 352.425 320.809 349.928 318.782C349.556 318.483 349.302 318.075 349.156 317.623C348.617 315.888 347.452 310.763 349.768 303.896C350.117 302.868 351.02 302.117 352.097 301.928Z" fill="#1C2027"/>
<path d="M402.453 128.026C379.099 131.226 360.739 126.976 347.984 118.826C321.092 101.643 315.34 67.6067 313.615 52.9539C336.118 48.3248 364.197 46.619 396.44 53.0268C400.502 53.836 403.079 57.8746 402.125 61.906C399.301 73.7886 394.867 98.2317 399.767 119.3C400.458 122.289 401.339 125.219 402.453 128.026Z" fill="#2E343D"/>
<path d="M404.04 131.685L378.05 135.914C344.926 132.487 347.314 118.483 347.314 118.483H347.329C362.842 116.85 380.489 116.697 399.759 119.3H399.767C400.764 123.615 402.162 127.793 404.04 131.685Z" fill="#6836F2"/>
<path d="M440.243 134.674C438.846 141.403 434.012 154.948 417.661 158.352L415.324 151.266C415.324 151.266 382.062 148.445 334.108 160.043C322.853 151.9 318.041 143.954 316.017 139.172C346.259 132.706 386.168 128.412 437.164 130.679C439.202 130.774 440.666 132.677 440.243 134.674Z" fill="#2E343D"/>
</svg>
