<svg width="28" height="30" viewBox="0 0 28 30" fill="none" xmlns="http://www.w3.org/2000/svg">
<path d="M13.0667 0.0307937C5.63111 0.52028 0 7.13624 0 14.6996V25.263C0 27.8842 2.08444 30 4.66667 30H6.22222C7.93333 30 9.33333 28.5789 9.33333 26.842V20.5261C9.33333 18.7892 7.93333 17.3681 6.22222 17.3681H3.11111V14.668C3.11111 8.6047 7.71556 3.33088 13.6733 3.15719C15.1306 3.11258 16.5818 3.36551 17.941 3.90098C19.3001 4.43645 20.5394 5.24356 21.5855 6.27441C22.6315 7.30527 23.4629 8.53888 24.0303 9.90206C24.5978 11.2652 24.8898 12.7302 24.8889 14.2101V17.3681H21.7778C20.0667 17.3681 18.6667 18.7892 18.6667 20.5261V26.842C18.6667 28.5789 20.0667 30 21.7778 30H23.3333C25.9156 30 28 27.8842 28 25.263V14.2101C28 6.04674 21.2178 -0.506063 13.0667 0.0307937Z" fill="#B8B8B8"/>
</svg>
