<svg width="21" height="30" viewBox="0 0 21 30" fill="none" xmlns="http://www.w3.org/2000/svg">
<path d="M10.5 21C13.809 21 16.5 18.3075 16.5 15V6C16.5 2.691 13.809 0 10.5 0C7.191 0 4.5 2.691 4.5 6V15C4.5 18.3075 7.191 21 10.5 21ZM21 15V12C21 11.6022 20.842 11.2206 20.5607 10.9393C20.2794 10.658 19.8978 10.5 19.5 10.5C19.1022 10.5 18.7206 10.658 18.4393 10.9393C18.158 11.2206 18 11.6022 18 12V15C18 19.1355 14.6355 22.5 10.5 22.5C6.3645 22.5 3 19.1355 3 15V12C3 11.6022 2.84196 11.2206 2.56066 10.9393C2.27936 10.658 1.89782 10.5 1.5 10.5C1.10218 10.5 0.720645 10.658 0.43934 10.9393C0.158036 11.2206 0 11.6022 0 12V15C0 20.28 3.9195 24.648 9 25.38V27H4.5C4.10218 27 3.72064 27.158 3.43934 27.4393C3.15804 27.7206 3 28.1022 3 28.5C3 28.8978 3.15804 29.2794 3.43934 29.5607C3.72064 29.842 4.10218 30 4.5 30H16.5C16.8978 30 17.2794 29.842 17.5607 29.5607C17.842 29.2794 18 28.8978 18 28.5C18 28.1022 17.842 27.7206 17.5607 27.4393C17.2794 27.158 16.8978 27 16.5 27H12V25.38C17.0805 24.648 21 20.28 21 15Z" fill="#B8B8B8"/>
</svg>
