<svg width="27" height="30" viewBox="0 0 27 30" fill="none" xmlns="http://www.w3.org/2000/svg">
<path d="M2.16051 24.2536H24.8389C26.1984 24.2536 27 23.5568 27 22.5323C27 21.1097 25.5544 19.8297 24.3096 18.5636C23.3652 17.5822 23.1075 15.5623 23.0074 13.9266C22.8933 8.46426 21.4482 4.69461 17.6278 3.32902C17.0985 1.4797 15.6101 0 13.507 0C11.3886 0 9.91553 1.4797 9.37158 3.32902C5.56581 4.69461 4.10613 8.46365 4.00601 13.926C3.89185 15.5623 3.64827 17.5822 2.68981 18.5636C1.45906 19.8297 0 21.1097 0 22.5329C0 23.5568 0.81561 24.2536 2.16051 24.2536ZM9.14265 26.1885C9.31481 28.2654 11.0742 30 13.507 30C15.9246 30 17.6846 28.2654 17.8708 26.1885H9.14265Z" fill="#B8B8B8"/>
</svg>
