<svg width="23" height="23" viewBox="0 0 23 23" fill="none" xmlns="http://www.w3.org/2000/svg">
<path d="M4.21336 15.5868L10.948 8.95848C11.095 8.81311 11.2933 8.73157 11.5 8.73157C11.7067 8.73157 11.9051 8.81311 12.052 8.95848L18.7867 15.5854C18.9346 15.7307 19.1336 15.8121 19.3409 15.8121C19.5482 15.8121 19.7472 15.7307 19.895 15.5854C19.9679 15.5144 20.0257 15.4295 20.0652 15.3359C20.1047 15.2422 20.1251 15.1415 20.1251 15.0398C20.1251 14.9381 20.1047 14.8375 20.0652 14.7438C20.0257 14.6501 19.9679 14.5653 19.895 14.4943L13.1618 7.86742C12.7183 7.43196 12.1216 7.18799 11.5 7.18799C10.8785 7.18799 10.2818 7.43196 9.83829 7.86742L3.10504 14.4943C3.03202 14.5653 2.97397 14.6502 2.93433 14.744C2.89469 14.8379 2.87427 14.9387 2.87427 15.0405C2.87427 15.1424 2.89469 15.2432 2.93433 15.337C2.97397 15.4309 3.03202 15.5158 3.10504 15.5868C3.2529 15.7321 3.4519 15.8135 3.6592 15.8135C3.8665 15.8135 4.0655 15.7321 4.21336 15.5868Z" fill="#F0F0F0"/>
</svg>
