<svg width="27" height="27" viewBox="0 0 27 27" fill="none" xmlns="http://www.w3.org/2000/svg">
<path d="M26.3906 13.5C26.3906 13.9103 26.2276 14.3037 25.9376 14.5938C25.6475 14.8839 25.254 15.0469 24.8438 15.0469H15.0469V24.8438C15.0469 25.254 14.8839 25.6475 14.5938 25.9376C14.3037 26.2276 13.9103 26.3906 13.5 26.3906C13.0897 26.3906 12.6963 26.2276 12.4062 25.9376C12.1161 25.6475 11.9531 25.254 11.9531 24.8438V15.0469H2.15625C1.74599 15.0469 1.35254 14.8839 1.06244 14.5938C0.772349 14.3037 0.609375 13.9103 0.609375 13.5C0.609375 13.0897 0.772349 12.6963 1.06244 12.4062C1.35254 12.1161 1.74599 11.9531 2.15625 11.9531H11.9531V2.15625C11.9531 1.74599 12.1161 1.35254 12.4062 1.06244C12.6963 0.772349 13.0897 0.609375 13.5 0.609375C13.9103 0.609375 14.3037 0.772349 14.5938 1.06244C14.8839 1.35254 15.0469 1.74599 15.0469 2.15625V11.9531H24.8438C25.254 11.9531 25.6475 12.1161 25.9376 12.4062C26.2276 12.6963 26.3906 13.0897 26.3906 13.5Z" fill="#B8B8B8"/>
</svg>
