<svg width="30" height="30" viewBox="0 0 30 30" fill="none" xmlns="http://www.w3.org/2000/svg">
<path d="M18.9704 3.1218C19.0106 3.28789 19.0895 3.44214 19.2006 3.57201C19.3117 3.70187 19.4519 3.80368 19.6097 3.86916C19.7676 3.93465 19.9387 3.96195 20.1091 3.94885C20.2795 3.93575 20.4444 3.88262 20.5904 3.79378C24.2488 1.56634 28.4352 5.75123 26.2077 9.40964C26.1189 9.55553 26.0657 9.72033 26.0525 9.89063C26.0393 10.0609 26.0665 10.232 26.1318 10.3898C26.1971 10.5476 26.2988 10.6878 26.4285 10.799C26.5582 10.9102 26.7122 10.9892 26.8782 11.0296C31.0406 12.0391 31.0406 17.9594 26.8782 18.9704C26.7121 19.0106 26.5579 19.0895 26.428 19.2006C26.2981 19.3117 26.1963 19.4519 26.1308 19.6097C26.0653 19.7676 26.038 19.9387 26.0511 20.1091C26.0642 20.2795 26.1174 20.4444 26.2062 20.5904C28.4337 24.2488 24.2488 28.4352 20.5904 26.2077C20.4445 26.1189 20.2797 26.0657 20.1094 26.0525C19.9391 26.0393 19.768 26.0665 19.6102 26.1318C19.4524 26.1971 19.3122 26.2988 19.201 26.4285C19.0898 26.5582 19.0108 26.7122 18.9704 26.8782C17.9609 31.0406 12.0406 31.0406 11.0296 26.8782C10.9894 26.7121 10.9105 26.5579 10.7994 26.428C10.6883 26.2981 10.5481 26.1963 10.3903 26.1308C10.2324 26.0653 10.0613 26.038 9.89093 26.0511C9.72053 26.0642 9.55563 26.1174 9.40964 26.2062C5.75123 28.4337 1.56484 24.2488 3.79228 20.5904C3.88113 20.4445 3.9343 20.2797 3.94749 20.1094C3.96068 19.9391 3.93351 19.768 3.86819 19.6102C3.80286 19.4524 3.70123 19.3122 3.57154 19.201C3.44185 19.0898 3.28776 19.0108 3.1218 18.9704C-1.0406 17.9609 -1.0406 12.0406 3.1218 11.0296C3.28789 10.9894 3.44214 10.9105 3.57201 10.7994C3.70187 10.6883 3.80368 10.5481 3.86916 10.3903C3.93465 10.2324 3.96195 10.0613 3.94885 9.89093C3.93575 9.72053 3.88262 9.55563 3.79378 9.40964C1.56634 5.75123 5.75123 1.56484 9.40964 3.79228C9.55538 3.8818 9.72026 3.93552 9.89076 3.94905C10.0613 3.96258 10.2326 3.93553 10.3906 3.87012C10.5486 3.80471 10.6889 3.7028 10.8 3.57273C10.9111 3.44266 10.9897 3.28813 11.0296 3.1218C12.0391 -1.0406 17.9594 -1.0406 18.9704 3.1218ZM15 10.5001C13.8066 10.5001 12.662 10.9742 11.8181 11.8181C10.9742 12.662 10.5001 13.8066 10.5001 15C10.5001 16.1934 10.9742 17.338 11.8181 18.1819C12.662 19.0258 13.8066 19.4999 15 19.4999C16.1934 19.4999 17.338 19.0258 18.1819 18.1819C19.0258 17.338 19.4999 16.1934 19.4999 15C19.4999 13.8066 19.0258 12.662 18.1819 11.8181C17.338 10.9742 16.1934 10.5001 15 10.5001Z" fill="#B8B8B8"/>
</svg>
